<svg width="16" height="17" viewBox="0 0 16 17" fill="none" xmlns="http://www.w3.org/2000/svg">
<path d="M4.31213 11.1681H5.31962C6.0206 7.19159 9.48407 4.16812 13.6616 4.16812C13.8366 4.16812 14.0031 4.16962 14.1711 4.17111L12.3391 6.0026C12.1436 6.1981 12.1436 6.51409 12.3391 6.7096C12.4366 6.8071 12.5646 6.8561 12.6926 6.8561C12.8205 6.8561 12.9486 6.8071 13.046 6.7096L16 3.67811L13.0465 0.646628C12.851 0.451124 12.535 0.451124 12.3395 0.646628C12.144 0.842133 12.144 1.15812 12.3395 1.35363L14.155 3.16911C13.996 3.16861 13.845 3.16762 13.6825 3.16762C8.9476 3.16811 5.03314 6.63558 4.31213 11.1681Z" fill="white"/>
<path d="M14.5 7.99996C14.224 7.99996 14 8.22398 14 8.49995V15.4999H1.00013V5.49997H5.5001C5.77611 5.49997 6.00009 5.27595 6.00009 4.99998C6.00009 4.72397 5.77607 4.5 5.5001 4.5H5.4851H1.00013C0.448154 4.5 0.00012207 4.94799 0.00012207 5.50001V15.4999C0.00012207 16.0519 0.448112 16.4999 1.00013 16.4999H14C14.552 16.4999 15 16.0519 15 15.4999V8.49995C15 8.22394 14.776 7.99996 14.5 7.99996Z" fill="white"/>
</svg>
