<svg width="16" height="17" viewBox="0 0 16 17" fill="none" xmlns="http://www.w3.org/2000/svg">
<path d="M15.8996 4.56667L10.8625 0.566657C10.8086 0.523719 10.7387 0.5 10.6667 0.5H2.07407C1.91021 0.5 1.77778 0.619188 1.77778 0.766657V6.63334H0.296285C0.132431 6.63334 0 6.75252 0 6.89999V10.1C0 10.2475 0.132431 10.3667 0.296285 10.3667H1.77778V16.2333C1.77778 16.3808 1.91021 16.5 2.07407 16.5H15.7037C15.8676 16.5 16 16.3808 16 16.2333V4.76667C16 4.69014 15.9636 4.61736 15.8996 4.56667ZM10.963 1.3576L14.92 4.50002H10.963V1.3576ZM0.592605 9.83338V7.16671H5.03706C5.20091 7.16671 5.33334 7.04753 5.33334 6.90006V5.76111L7.90818 8.50003L5.33334 11.239V10.1C5.33334 9.95257 5.20091 9.83338 5.03706 9.83338H0.592605ZM15.4074 15.9667H2.37039V10.3667H4.74077V11.9667C4.74077 12.0787 4.81841 12.1787 4.93515 12.2171C4.96862 12.228 5.003 12.2334 5.03706 12.2334C5.12241 12.2334 5.20564 12.2 5.26341 12.139L8.52269 8.67231C8.61603 8.57313 8.61603 8.42725 8.52269 8.32803L5.26341 4.86136C5.18282 4.77577 5.05157 4.74483 4.93543 4.78295C4.81838 4.82136 4.74077 4.92136 4.74077 5.03336V6.63337H2.37039V1.03335H10.3704V4.7667C10.3704 4.91417 10.5028 5.03336 10.6667 5.03336H15.4074V15.9667Z" fill="white"/>
</svg>
